<svg width="40" height="40" viewBox="0 0 40 40" fill="none" xmlns="http://www.w3.org/2000/svg">
<path opacity="0.2" d="M13.7501 21.0737L35.0176 5.71397L35.0179 5.71334C34.866 5.64354 34.7013 5.60546 34.5342 5.60143C34.367 5.5974 34.2007 5.62751 34.0456 5.6899L5.20855 17.0187C4.95727 17.1174 4.74472 17.2949 4.6027 17.5245C4.46067 17.7541 4.39681 18.0235 4.42066 18.2925C4.44451 18.5614 4.55479 18.8154 4.73501 19.0164C4.91523 19.2174 5.15569 19.3547 5.42042 19.4077L13.7501 21.0737Z" fill="#AF9678"/>
<path opacity="0.2" d="M20.7667 27.2488L15.8839 32.1316C15.7091 32.3064 15.4864 32.4254 15.244 32.4737C15.0015 32.5219 14.7502 32.4972 14.5218 32.4026C14.2934 32.308 14.0982 32.1479 13.9608 31.9423C13.8234 31.7368 13.7501 31.4952 13.75 31.248V21.0742L20.7667 27.2488Z" fill="#AF9678"/>
<path d="M36.1339 4.95888C35.7895 4.66147 35.3702 4.46397 34.9216 4.38776C34.4729 4.31155 34.0119 4.35954 33.5886 4.52654L4.75157 15.8554C4.24902 16.053 3.82392 16.4079 3.53987 16.8671C3.25582 17.3263 3.12809 17.8652 3.17579 18.403C3.22349 18.9409 3.44406 19.4489 3.80449 19.851C4.16492 20.253 4.64585 20.5276 5.17532 20.6336L12.5002 22.0989V31.2478C12.4997 31.7424 12.6461 32.2261 12.9207 32.6375C13.1953 33.0489 13.5859 33.3695 14.0428 33.5588C14.4998 33.7481 15.0027 33.7975 15.4878 33.7008C15.9729 33.6041 16.4184 33.3657 16.7678 33.0156L20.8216 28.962L26.9741 34.3761C27.427 34.7784 28.0116 35.0009 28.6174 35.0017C28.8807 35.0014 29.1423 34.9599 29.3928 34.8787C29.806 34.7477 30.1776 34.5106 30.4706 34.1911C30.7635 33.8715 30.9676 33.4808 31.0624 33.0578L36.9395 7.41217C37.0419 6.96868 37.0209 6.50564 36.8789 6.07322C36.7369 5.6408 36.4793 5.25549 36.1339 4.95904V4.95888ZM13.4605 19.7412L5.66595 18.1823L27.4911 9.60795L13.4605 19.7412ZM15.0002 31.2465V23.839L18.9408 27.3067L15.0002 31.2465ZM28.6255 32.4992L15.7517 21.1701L34.29 7.78154L28.6255 32.4992Z" fill="#AF9678"/>
</svg>
