<svg width="40" height="40" viewBox="0 0 40 40" fill="none" xmlns="http://www.w3.org/2000/svg">
<path d="M20.0667 3.33311C10.9667 3.33311 3.55008 10.7498 3.55008 19.8498C3.55008 22.7664 4.31675 25.5998 5.75008 28.0998L3.41675 36.6664L12.1667 34.3664C14.5834 35.6831 17.3001 36.3831 20.0667 36.3831C29.1667 36.3831 36.5834 28.9664 36.5834 19.8664C36.5834 15.4498 34.8667 11.2998 31.7501 8.18311C30.2221 6.63965 28.402 5.41589 26.3961 4.58319C24.3902 3.7505 22.2386 3.32554 20.0667 3.33311ZM20.0834 6.11644C23.7501 6.11644 27.1834 7.54977 29.7834 10.1498C31.0594 11.4254 32.0711 12.9403 32.7603 14.6077C33.4496 16.2751 33.8029 18.0622 33.8001 19.8664C33.8001 27.4331 27.6334 33.5831 20.0667 33.5831C17.6001 33.5831 15.1834 32.9331 13.0834 31.6664L12.5834 31.3831L7.38341 32.7498L8.76675 27.6831L8.43341 27.1498C7.05665 24.9642 6.32843 22.4328 6.33341 19.8498C6.35008 12.2831 12.5001 6.11644 20.0834 6.11644ZM14.2167 12.2164C13.9501 12.2164 13.5001 12.3164 13.1167 12.7331C12.7501 13.1498 11.6667 14.1664 11.6667 16.1831C11.6667 18.2164 13.1501 20.1664 13.3334 20.4498C13.5667 20.7331 16.2667 24.8998 20.4167 26.6664C21.4001 27.1164 22.1667 27.3664 22.7667 27.5498C23.7501 27.8664 24.6501 27.8164 25.3667 27.7164C26.1667 27.5998 27.8001 26.7164 28.1501 25.7498C28.5001 24.7831 28.5001 23.9664 28.4001 23.7831C28.2834 23.6164 28.0167 23.5164 27.6001 23.3331C27.1834 23.0998 25.1501 22.0998 24.7834 21.9664C24.4001 21.8331 24.1667 21.7664 23.8501 22.1664C23.5834 22.5831 22.7834 23.5164 22.5501 23.7831C22.3001 24.0664 22.0667 24.0998 21.6667 23.8998C21.2334 23.6831 19.9001 23.2498 18.3334 21.8498C17.1001 20.7498 16.2834 19.3998 16.0334 18.9831C15.8334 18.5831 16.0167 18.3331 16.2167 18.1498C16.4001 17.9664 16.6667 17.6664 16.8334 17.4164C17.0501 17.1831 17.1167 16.9998 17.2501 16.7331C17.3834 16.4498 17.3167 16.2164 17.2167 16.0164C17.1167 15.8331 16.2834 13.7664 15.9334 12.9498C15.6001 12.1498 15.2667 12.2498 15.0001 12.2331C14.7667 12.2331 14.5001 12.2164 14.2167 12.2164Z" fill="#AF9678"/>
</svg>
